<?xml version="1.0" encoding="utf-8"?>
<!-- Generator: Adobe Illustrator 25.0.1, SVG Export Plug-In . SVG Version: 6.00 Build 0)  -->
<svg version="1.1" id="Capa_1" xmlns:sketch="http://www.bohemiancoding.com/sketch/ns"
	 xmlns="http://www.w3.org/2000/svg" xmlns:xlink="http://www.w3.org/1999/xlink" x="0px" y="0px" viewBox="0 0 46 46"
	 style="enable-background:new 0 0 46 46;" xml:space="preserve">
<style type="text/css">
	.st0{fill-rule:evenodd;clip-rule:evenodd;fill:#4285F4;}
	.st1{fill-rule:evenodd;clip-rule:evenodd;fill:#34A853;}
	.st2{fill-rule:evenodd;clip-rule:evenodd;fill:#FBBC05;}
	.st3{fill-rule:evenodd;clip-rule:evenodd;fill:#EA4335;}
	.st4{fill:none;}
</style>
<desc>Created with Sketch.</desc>
<g id="Google-Button" sketch:type="MSPage">
	<g id="_x39_-PATCH" transform="translate(-608.000000, -160.000000)" sketch:type="MSArtboardGroup">
	</g>
	<g id="btn_google_light_normal" transform="translate(-1.000000, -1.000000)" sketch:type="MSArtboardGroup">
		<g id="logo_googleg_48dp" transform="translate(15.000000, 15.000000)" sketch:type="MSLayerGroup">
			<path id="Shape" sketch:type="MSShapeGroup" class="st0" d="M31.1,9.5c0-1.6-0.1-3.2-0.4-4.7H9v8.9h12.4
				c-0.5,2.9-2.2,5.3-4.6,6.9v5.8h7.4C28.6,22.4,31.1,16.5,31.1,9.5L31.1,9.5z"/>
			<path id="Shape_1_" sketch:type="MSShapeGroup" class="st1" d="M9,32c6.2,0,11.4-2.1,15.2-5.6l-7.4-5.8c-2.1,1.4-4.7,2.2-7.8,2.2
				c-6,0-11.1-4-12.9-9.5h-7.7v6C-7.8,26.8,0,32,9,32L9,32z"/>
			<path id="Shape_2_" sketch:type="MSShapeGroup" class="st2" d="M-3.9,13.4C-4.3,12-4.6,10.5-4.6,9s0.3-3,0.7-4.4v-6h-7.7
				C-13.1,1.8-14,5.3-14,9s0.9,7.2,2.4,10.3L-3.9,13.4L-3.9,13.4z"/>
			<path id="Shape_3_" sketch:type="MSShapeGroup" class="st3" d="M9-4.9c3.4,0,6.4,1.2,8.8,3.4L24.4-8c-4-3.7-9.2-6-15.4-6
				C0-14-7.8-8.8-11.6-1.3l7.7,6C-2.1-0.8,3-4.9,9-4.9L9-4.9z"/>
			<path id="Shape_4_" sketch:type="MSShapeGroup" class="st4" d="M-14-14h46v46h-46V-14z"/>
		</g>
		<g sketch:type="MSLayerGroup">
		</g>
	</g>
</g>
</svg>
