<?xml version="1.0" encoding="utf-8"?>
<!-- Generator: Adobe Illustrator 25.0.1, SVG Export Plug-In . SVG Version: 6.00 Build 0)  -->
<svg version="1.1" id="Capa_1" xmlns="http://www.w3.org/2000/svg" xmlns:xlink="http://www.w3.org/1999/xlink" x="0px" y="0px"
	 viewBox="0 0 370.3 313.7" style="enable-background:new 0 0 370.3 313.7;" xml:space="preserve">
<path d="M255,122.8v-15.3c0-0.9-0.1-1.9-0.4-2.8c-0.6-40.6-51-73.8-115.2-77.6V11.9c0-6.5-5.3-11.9-11.9-11.9s-11.9,5.3-11.9,11.9
	v15.2C50.9,30.7,0,64.5,0,105.5c0,41,50.8,74.7,115.7,78.4v14.7c0,0.9-0.1,1.7-0.1,2.6s0,1.7,0.1,2.6v2.4c0,1.5,0.3,2.9,0.8,4.3
	c7,36.7,54.9,65.7,114.8,69.1v22.3c0,6.5,5.3,11.9,11.9,11.9s11.9-5.3,11.9-11.9v-22.3c64.7-3.8,115.3-37.4,115.3-78.4
	C370.3,160.2,319.7,126.5,255,122.8L255,122.8z M199.7,250.9l17.6-36c1.8-3.8,2.1-8.1,0.8-12s-4-7.3-7.7-9.3l-0.2-0.1
	c-2.6-1.5-5.5-2.3-8.5-2.2c-3,0-5.9,0.9-8.4,2.5l-45,28.7c-5.9-6.9-9-14.2-9-21.3c0-24.3,37.2-51.2,92-54.6v15.4h0
	c0,6.5,5.3,11.9,11.9,11.9c6.5,0,11.9-5.3,11.9-11.9v-15.4c54.5,3.5,91.6,30.3,91.6,54.6c0,26-42.6,55-103.7,55
	C228.4,256.2,213.9,254.4,199.7,250.9L199.7,250.9z M127.3,160.5L127.3,160.5c-14.6,0.1-29.1-1.7-43.2-5.3l17.6-36
	c1.8-3.8,2.1-8,0.8-12c-1.3-4-4-7.3-7.7-9.3l-0.2-0.1v0c-2.6-1.5-5.5-2.3-8.5-2.2c-3,0-5.9,0.9-8.4,2.5l-44.9,28.7
	c-5.9-6.9-9-14.2-9-21.3c0-24.3,37.2-51.2,92-54.6v15.4c0,6.5,5.3,11.9,11.9,11.9s11.9-5.3,11.9-11.9V50.9
	C194,54.3,231,81.2,231,105.5h0c-0.2,6.4-2.4,12.6-6.3,17.8c-38.4,3.4-71.3,17.4-90.7,37.1C131.8,160.4,129.6,160.5,127.3,160.5
	L127.3,160.5z"/>
</svg>
