<?xml version="1.0" encoding="utf-8"?>
<!-- Generator: Adobe Illustrator 25.0.1, SVG Export Plug-In . SVG Version: 6.00 Build 0)  -->
<svg version="1.1" id="Capa_1" xmlns="http://www.w3.org/2000/svg" xmlns:xlink="http://www.w3.org/1999/xlink" x="0px" y="0px"
	 viewBox="0 0 348 412.3" style="enable-background:new 0 0 348 412.3;" xml:space="preserve">
<path d="M324.2,330.5c13.9-22.6,21.7-48.4,22.7-74.9h0.1v-92.9C347.1,72.8,269.6,0,174,0C78.5,0,1,72.9,1,162.7v92.9h0.1
	c1,26.5,8.9,52.3,22.7,74.9L1.3,375.2c-2.9,5.8-0.6,13,5.2,15.9c5.8,2.9,13,0.6,15.9-5.2l17.1-33.9c31.7,36.8,80.2,60.3,134.5,60.3
	c54.3,0,102.7-23.5,134.5-60.3l17.1,33.9c3,5.7,10.1,8,15.9,5.1c5.8-2.9,8.1-9.9,5.3-15.8L324.2,330.5z M174.1,388.6
	c-82.3,0-149.3-62.3-149.3-139c0-76.6,67-139,149.3-139s149.3,62.3,149.3,139C323.4,326.2,256.4,388.6,174.1,388.6L174.1,388.6z"/>
<path d="M258.4,291.9c0,20.8-16.8,37.6-37.6,37.6c-20.8,0-37.6-16.8-37.6-37.6c0-20.8,16.8-37.6,37.6-37.6
	C241.6,254.4,258.4,271.2,258.4,291.9"/>
</svg>
