<?xml version="1.0" encoding="utf-8"?>
<!-- Generator: Adobe Illustrator 25.0.1, SVG Export Plug-In . SVG Version: 6.00 Build 0)  -->
<svg version="1.1" id="Capa_1" xmlns="http://www.w3.org/2000/svg" xmlns:xlink="http://www.w3.org/1999/xlink" x="0px" y="0px"
	 viewBox="0 0 318.4 337.7" style="enable-background:new 0 0 318.4 337.7;" xml:space="preserve">
<path d="M17.1,173.3c-8.6,11.1-13.2,23.1-13.2,35.3c0,22.2,15,43.7,42.3,60.5c27.2,16.8,62.9,26.7,101.4,28.4l0,28.3
	c0,6.5,5.3,11.9,11.9,11.9s11.9-5.3,11.9-11.9v-28.4c38.3-1.7,73.8-11.6,100.9-28.4c27.1-16.7,42.3-38.3,42.3-60.5
	c0-12.2-4.6-24.2-13.2-35.3v0c4-4.8,7.4-10,10.2-15.5c4.5-8.9,6.9-18.8,7-28.8c0-51.8-64.8-94.2-147.1-98.1v-19
	C171.3,5.3,166,0,159.5,0s-11.9,5.3-11.9,11.9v18.9C65.1,34.5,0,77,0,128.9c0.1,10,2.4,19.9,7,28.8C9.8,163.3,13.2,168.5,17.1,173.3
	L17.1,173.3z M23.7,128.9c0-10.3,4.6-30.4,35.4-49.4c23.7-14.6,54.8-23.4,88.5-25l0,25.3c0,6.5,5.3,11.9,11.9,11.9
	s11.9-5.3,11.9-11.9V54.5c33.6,1.7,64.4,10.4,88,25c30.8,19,35.4,39.1,35.4,49.4s-4.6,30.4-35.4,49.4
	c-26.4,16.3-61.9,25.3-100.1,25.3v0c-19.1,0.1-38.2-2.3-56.7-7.1l24.7-50.6c2.2-4.7,2.6-10.1,1-15c-1.6-4.9-5-9.1-9.6-11.6l-0.3-0.2
	v0c-3.2-1.9-6.9-2.9-10.6-2.8c-3.7,0.1-7.4,1.1-10.5,3.1l-61.5,39.2C25.7,146.5,23.7,135.6,23.7,128.9L23.7,128.9z"/>
</svg>
