<?xml version="1.0" encoding="utf-8"?>
<!-- Generator: Adobe Illustrator 25.0.1, SVG Export Plug-In . SVG Version: 6.00 Build 0)  -->
<svg version="1.1" id="Capa_1" xmlns="http://www.w3.org/2000/svg" xmlns:xlink="http://www.w3.org/1999/xlink" x="0px" y="0px"
	 viewBox="0 0 292.6 292.5" style="enable-background:new 0 0 292.6 292.5;" xml:space="preserve">
<path d="M33.7,200.7c2.2,6.8,4.9,13.3,8.2,19.6c-7.3,10.7-9.2,24.3-5,36.6c4.1,12.3,13.8,22,26.1,26.1c12.3,4.1,25.8,2.3,36.6-5
	c33.5,17.1,72.7,19.2,107.9,5.8c35.1-13.5,62.9-41.2,76.4-76.4c13.5-35.1,11.4-74.4-5.8-107.9c7.3-10.7,9.1-24.3,5-36.6
	c-4.2-12.3-13.8-22-26.1-26.1c-12.3-4.1-25.9-2.2-36.6,5.1c-6.3-3.2-12.9-5.9-19.6-8.1C198.3,21,190,10.1,178.4,4.3
	c-11.6-5.8-25.3-5.8-36.9,0c-11.6,5.8-19.9,16.7-22.3,29.4c-6.8,2.2-13.3,4.9-19.6,8.1c-10.7-7.2-24.2-9-36.5-4.9
	c-12.3,4.1-21.9,13.8-26,26c-4.1,12.3-2.3,25.7,4.9,36.5c-3.2,6.3-5.9,12.9-8.1,19.6c-12.8,2.4-23.7,10.7-29.4,22.3
	c-5.8,11.6-5.8,25.3,0,36.9C10.1,190,21,198.3,33.7,200.7L33.7,200.7z M41.1,142.1L41.1,142.1c4.7,0,9.2,1.9,12.6,5.2
	c3.3,3.3,5.2,7.9,5.2,12.6c0,4.7-1.9,9.2-5.2,12.6s-7.9,5.2-12.6,5.2c-4.7,0-9.2-1.9-12.6-5.2c-3.3-3.3-5.2-7.9-5.2-12.6
	c0-4.7,1.9-9.2,5.2-12.6C31.9,144,36.4,142.1,41.1,142.1L41.1,142.1z M75.9,58.2L75.9,58.2c5.5,0,10.7,2.6,14.1,7
	c3.4,4.4,4.5,10.1,3.1,15.4c-1.4,5.3-5.3,9.7-10.4,11.8c-5.1,2.1-10.9,1.7-15.7-1c-4.8-2.8-8-7.6-8.7-13.1c-0.7-5.5,1.2-11,5.1-14.9
	C66.7,60,71.2,58.1,75.9,58.2L75.9,58.2z M159.9,23.4L159.9,23.4c4.7,0,9.2,1.9,12.6,5.2c3.3,3.3,5.2,7.9,5.2,12.6
	c0,4.7-1.9,9.2-5.2,12.6c-3.3,3.3-7.9,5.2-12.6,5.2s-9.2-1.9-12.6-5.2c-3.3-3.3-5.2-7.9-5.2-12.6c0-4.7,1.9-9.2,5.2-12.6
	C150.7,25.2,155.2,23.4,159.9,23.4L159.9,23.4z M256.4,63.4L256.4,63.4c3.9,3.9,5.8,9.4,5.1,14.9s-3.9,10.3-8.7,13.1
	c-4.8,2.8-10.6,3.1-15.7,1c-5.1-2.1-8.9-6.5-10.4-11.8c-1.4-5.3-0.3-11,3.1-15.4c3.4-4.4,8.6-7,14.1-6.9
	C248.6,58.2,253.1,60,256.4,63.4L256.4,63.4z M268.8,159.9L268.8,159.9c0,37.1-18.9,71.6-50.1,91.6c-31.2,20-70.4,22.8-104.2,7.4
	c3.9-10.1,3.7-21.2-0.5-31.1c-4.2-9.9-12.1-17.8-22-22c-9.9-4.2-21.1-4.4-31.1-0.5c-1.1-2.4-2.1-4.9-3.1-7.4v0
	c9.9-4.4,17.6-12.4,21.7-22.4c4-10,4-21.2,0-31.2c-4.1-10-11.8-18-21.7-22.4c0.9-2.5,2-5,3.1-7.4c10.1,3.9,21.2,3.7,31.2-0.5
	c9.9-4.2,17.8-12.1,22-22c4.2-9.9,4.4-21.1,0.5-31.2c2.4-1.1,4.9-2.1,7.4-3.1c4.4,9.9,12.4,17.6,22.4,21.7c10,4,21.2,4,31.2,0
	c10-4.1,18-11.8,22.4-21.7c2.5,0.9,5,2,7.4,3.1h0c-3.9,10.1-3.7,21.2,0.5,31.2c4.2,9.9,12.1,17.8,22,22c9.9,4.2,21.1,4.4,31.2,0.5
	C265.4,128.8,268.8,144.3,268.8,159.9L268.8,159.9z M63.3,256.5L63.3,256.5c-3.9-3.9-5.8-9.4-5.1-14.9c0.7-5.5,3.9-10.3,8.7-13.1
	c4.8-2.8,10.6-3.1,15.7-1c5.1,2.1,8.9,6.5,10.4,11.8c1.4,5.3,0.3,11-3.1,15.4c-3.4,4.4-8.6,7-14.1,7
	C71.2,261.6,66.7,259.8,63.3,256.5L63.3,256.5z"/>
</svg>
