<?xml version="1.0" encoding="utf-8"?>
<!-- Generator: Adobe Illustrator 25.0.1, SVG Export Plug-In . SVG Version: 6.00 Build 0)  -->
<svg version="1.1" id="Capa_1" xmlns="http://www.w3.org/2000/svg" xmlns:xlink="http://www.w3.org/1999/xlink" x="0px" y="0px"
	 viewBox="0 0 351.1 370.9" style="enable-background:new 0 0 351.1 370.9;" xml:space="preserve">
<path d="M69,85.8c-21.6,15.4-34.7,35.4-34.7,57.3v140.4c0,48.3,63.4,87.5,141.5,87.5c78.2,0,141.5-39.2,141.5-87.5V143.1
	c0-22-13.2-42.2-35-57.5l65.4-65.4v0c4.6-4.6,4.5-12.1-0.1-16.7c-4.6-4.6-12.1-4.6-16.7-0.1l-69.9,70
	c-23.7-11.1-53.2-17.8-85.3-17.8S114,62.2,90.2,73.4l-70-70C15.5-1.2,8.1-1.1,3.5,3.5c-4.6,4.6-4.6,12.1-0.1,16.7L69,85.8z
	 M211.6,139.4c4.6,4.6,12.1,4.6,16.8,0l36.8-36.8c24.6,15.8,28.3,32.1,28.3,40.5c0,8.4-4,25.4-30.2,41.7
	c-22.7,14-54.6,22.1-87.6,22.1s-64.8-8-87.5-22.1C61.9,168.5,58,151.7,58,143.1s3.7-24.5,28.1-40.3l36.6,36.6
	c2.2,2.2,5.2,3.5,8.4,3.5c3.2,0,6.2-1.2,8.4-3.5c2.2-2.2,3.5-5.3,3.5-8.4c0-3.2-1.3-6.2-3.5-8.4l-31.1-31.1
	c43.4-16.1,91.2-16.2,134.7-0.1l-31.3,31.2c-2.2,2.2-3.5,5.2-3.5,8.4C208.2,134.2,209.4,137.2,211.6,139.4L211.6,139.4z"/>
</svg>
