<?xml version="1.0" encoding="utf-8"?>
<!-- Generator: Adobe Illustrator 25.0.1, SVG Export Plug-In . SVG Version: 6.00 Build 0)  -->
<svg version="1.1" id="Capa_1" xmlns="http://www.w3.org/2000/svg" xmlns:xlink="http://www.w3.org/1999/xlink" x="0px" y="0px"
	 viewBox="0 0 318.4 266.5" style="enable-background:new 0 0 318.4 266.5;" xml:space="preserve">
<path d="M147.6,227v27.7v0c0,6.5,5.3,11.9,11.9,11.9s11.9-5.3,11.9-11.9V227c82.3-3.8,147.1-46.3,147.1-98.1
	c0-51.8-64.8-94.2-147.1-98.1v-19C171.3,5.3,166,0,159.5,0s-11.9,5.3-11.9,11.9v18.9C65.1,34.5,0,77,0,128.9S65.1,223.3,147.6,227
	L147.6,227z M159.5,91.7c6.5,0,11.9-5.3,11.9-11.9V54.5c33.6,1.7,64.4,10.4,88,25c30.8,19,35.4,39.1,35.4,49.4s-4.6,30.4-35.4,49.4
	c-26.4,16.3-61.9,25.3-100.1,25.3v0c-19.1,0.1-38.1-2.3-56.6-7.1l24.6-50.4c2.2-4.7,2.6-10.1,1-15c-1.6-4.9-5-9.1-9.6-11.6l-0.3-0.2
	v0c-3.2-1.9-6.9-2.9-10.6-2.8c-3.7,0.1-7.4,1.1-10.5,3.1l-61.4,39.2c-10.1-12.1-12.1-23.1-12.1-29.9c0-10.3,4.6-30.4,35.4-49.4
	c23.7-14.6,54.8-23.4,88.5-25l0,25.4C147.6,86.4,152.9,91.7,159.5,91.7L159.5,91.7z"/>
</svg>
