<?xml version="1.0" encoding="utf-8"?>
<!-- Generator: Adobe Illustrator 25.0.1, SVG Export Plug-In . SVG Version: 6.00 Build 0)  -->
<svg version="1.1" id="Capa_1" xmlns="http://www.w3.org/2000/svg" xmlns:xlink="http://www.w3.org/1999/xlink" x="0px" y="0px"
	 viewBox="0 0 552.9 597.4" style="enable-background:new 0 0 552.9 597.4;" xml:space="preserve">
<g>
	<path d="M361.4,534.8l50.4-48.2L537,364c12.5-12.2,18.1-29.7,15.1-46.9c-3.1-17.2-14.5-31.7-30.4-38.7c7.6-12.9,9.4-28.3,4.9-42.6
		c-4.5-14.2-14.9-25.9-28.5-32c7.5-13.3,8.8-29.1,3.7-43.4c-5.1-14.3-16.2-25.7-30.4-31.3c-14.2-5.5-30.1-4.6-43.5,2.5
		c-6.6-16.1-20.8-27.9-37.8-31.5c-17.1-3.6-34.8,1.6-47.3,13.7l-80,77.8l-22.6-7.4l0,0c-15.2-5.3-31.6-6.2-47.4-2.8
		c-15.8,3.5-30.2,11.2-41.9,22.4l-48.6,47.2l0,0c-16.4,16.2-25.7,38.2-25.9,61.2l-0.8,62.8l-16.5,16l0,0c-4.2,4.4-5.8,10.7-4.3,16.6
		c1.6,5.9,6.1,10.6,12,12.3c5.9,1.7,12.2,0.3,16.7-3.8l20-21.2c3.4-3.3,5.3-7.7,5.3-12.4l1-69.9l0,0c0.2-13.9,5.9-27.2,15.9-36.9
		l48.6-47.2c7-6.7,15.7-11.3,25.2-13.4c9.5-2.1,19.3-1.5,28.4,1.7l6.3,2.3l-67.6,65.6l0,0c-4.2,4.4-5.8,10.7-4.3,16.6
		c1.6,5.9,6.1,10.6,12,12.3c5.9,1.7,12.2,0.3,16.7-3.8l176.2-170.8c3.3-3.2,7.8-5,12.4-4.9c4.6,0.1,9,2,12.3,5.3
		c3.2,3.3,5,7.8,4.9,12.4c-0.1,4.6-2,9-5.3,12.3l-30.2,29.3l-82.9,80.6l0,0c-3.5,3.2-5.6,7.7-5.7,12.4c-0.1,4.7,1.6,9.3,5,12.7
		c3.3,3.4,7.9,5.3,12.6,5.3c4.7,0,9.3-2,12.6-5.4l37.7-36.5l45.2-43.9l55.2-53.7c3.3-3.4,7.8-5.4,12.6-5.4c4.7,0,9.3,1.9,12.6,5.3
		c3.3,3.4,5.1,8,5,12.7c-0.1,4.7-2.2,9.2-5.7,12.4l-92,89.5l-33.5,32.6l-13.1,12.5l0,0c-3.5,3.2-5.6,7.7-5.7,12.4
		c-0.1,4.7,1.6,9.3,5,12.7c3.3,3.4,7.9,5.3,12.6,5.3c4.7,0,9.3-2,12.6-5.4l46-44.7l67.5-65.4c3.3-3.2,7.7-5,12.3-5
		c4.6,0,9,1.8,12.2,5.1c3.2,3.3,5,7.8,5,12.5c0,4.7-2,9.1-5.3,12.4l-25.3,24.7l-100.4,97.6l0,0c-1.1,1.5-2.1,3.1-2.7,4.9l-0.5,1.9
		c-0.5,1.3-0.8,2.7-0.9,4.1l0.1,2.3l0.7,3.8l1.9,3.4c2.5,4.9,7.3,8.4,12.8,9.3c5.5,0.9,11.1-0.9,15-4.7l98.8-97.7
		c3.3-3.4,7.8-5.4,12.6-5.4c4.7,0,9.3,1.9,12.6,5.3c3.3,3.4,5.1,8,5,12.7c-0.1,4.7-2.2,9.2-5.7,12.4l-100.4,97.6l-72.9,70.8
		l-84.1,34.6c-2.1,0.7-4.1,1.8-5.8,3.2l-22.4,21.7l0,0c-3.4,3.3-5.3,7.9-5.3,12.6c0,4.7,1.8,9.3,5.1,12.7c3.3,3.4,7.9,5.3,12.6,5.3
		c4.7,0,9.3-1.8,12.7-5.1l19.9-19.3l84.1-34.6C358.1,537.5,359.9,536.3,361.4,534.8L361.4,534.8z"/>
	<path d="M33.8,284.3l1-69.9c0.2-13.9,5.9-27.2,15.9-36.9l48.6-47.2c7-6.7,15.7-11.3,25.2-13.4c9.5-2.1,19.3-1.5,28.5,1.7l6.3,2.3
		l-67.6,65.6c-4.2,4.4-5.8,10.7-4.3,16.6c1.6,5.9,6.1,10.6,12,12.3c5.9,1.7,12.2,0.3,16.7-3.8l176-171.1c3.3-3.2,7.8-5,12.4-4.9
		c4.6,0.1,9,2,12.3,5.3c3.2,3.3,5,7.8,5,12.5c0,4.7-2,9.1-5.3,12.4l-54.3,52.8l-17.9,17.2l-3.2,3c-4.5,4.3-6.4,10.8-4.9,16.9
		c1.5,6.1,6.2,10.9,12.2,12.6c6,1.7,12.5,0.1,17-4.2l14.2-14l86.2-83.6c3.3-3.2,7.8-5,12.4-5c4.6,0,9.1,1.9,12.3,5.2
		c3.2,3.3,5,7.8,5,12.4c-0.3,4.8,1.4,9.4,4.7,12.9c3.3,3.5,7.8,5.5,12.6,5.6s9.4-1.8,12.7-5.2c3.3-3.4,5.2-8,5-12.8
		c0.1-18.6-9.6-35.9-25.6-45.4c-16-9.5-35.9-9.9-52.2-0.9C346.2,17,332,5.2,314.9,1.6c-17.1-3.6-34.8,1.6-47.3,13.7l-80.2,77.9
		l-22.6-7.4l0,0c-15.2-5.3-31.6-6.2-47.4-2.8c-15.8,3.5-30.2,11.2-41.9,22.4L27,152.6c-16.4,16.2-25.7,38.2-25.9,61.2l-1,69.9l0,0
		c-0.3,4.8,1.4,9.4,4.7,12.9c3.2,3.5,7.8,5.5,12.5,5.6s9.4-1.8,12.7-5.2c3.3-3.4,5.2-8,5-12.8L33.8,284.3z"/>
</g>
</svg>
