<?xml version="1.0" encoding="utf-8"?>
<!-- Generator: Adobe Illustrator 25.0.1, SVG Export Plug-In . SVG Version: 6.00 Build 0)  -->
<svg version="1.1" id="Capa_1" xmlns="http://www.w3.org/2000/svg" xmlns:xlink="http://www.w3.org/1999/xlink" x="0px" y="0px"
	 viewBox="0 0 265.3 335.6" style="enable-background:new 0 0 265.3 335.6;" xml:space="preserve">
<path d="M93.3,255.6l-35.8,62v0c-1.6,2.7-2.1,6-1.3,9.1c0.8,3.1,2.8,5.7,5.6,7.3c2.8,1.6,6,2,9.1,1.2c3.1-0.8,5.7-2.9,7.2-5.7
	l42.7-73.9h98.9c6.5,0,11.9-5.3,11.9-11.9s-5.3-11.9-11.9-11.9h-85.2l34.6-59.9c3.1-5.7,1.2-12.8-4.4-16c-5.6-3.2-12.8-1.4-16.1,4.2
	l-41.5,71.7H32.4L145.7,35.6L243,204.2v0c1.5,2.8,4.1,4.8,7.2,5.7c3.1,0.9,6.3,0.4,9.1-1.2c2.8-1.6,4.8-4.2,5.6-7.3
	c0.8-3.1,0.3-6.4-1.3-9.1L156,5.9c-2.1-3.7-6-5.9-10.3-5.9s-8.1,2.3-10.3,5.9L1.6,237.8c-2.1,3.7-2.1,8.2,0,11.9
	c2.1,3.7,6,5.9,10.3,5.9L93.3,255.6z"/>
</svg>
