<?xml version="1.0" encoding="utf-8"?>
<!-- Generator: Adobe Illustrator 25.0.1, SVG Export Plug-In . SVG Version: 6.00 Build 0)  -->
<svg version="1.1" id="Capa_1" xmlns="http://www.w3.org/2000/svg" xmlns:xlink="http://www.w3.org/1999/xlink" x="0px" y="0px"
	 viewBox="0 0 351 322.7" style="enable-background:new 0 0 351 322.7;" xml:space="preserve">
<path d="M330.9,3.4L276.3,58c-27.7-13.5-62.7-21.7-100.8-21.7S102.4,44.4,74.8,58L20.2,3.4C15.5-1.2,8.1-1.1,3.5,3.5
	c-4.6,4.6-4.6,12.1-0.1,16.7l50.2,50.2c-25.3,17.8-40.8,41-40.8,66.5v85.2c0,55.5,72.8,100.5,162.7,100.5
	c89.9,0,162.7-45,162.7-100.5l0-85.2c0-25.5-15.4-48.8-40.8-66.5l50.2-50.2h0c4.6-4.6,4.5-12.1-0.1-16.7
	C343-1.1,335.5-1.2,330.9,3.4L330.9,3.4z M314.5,136.9c0,10.6-4.7,31.4-36.4,50.9c-27,16.7-63.5,25.9-102.6,25.9S100,204.5,73,187.8
	c-31.6-19.6-36.4-40.3-36.4-50.9c0-10.6,4.5-30.3,34.1-49.4l51.9,51.9h0c2.2,2.3,5.2,3.5,8.4,3.5c3.2,0,6.2-1.2,8.4-3.5
	c2.2-2.2,3.5-5.3,3.5-8.4c0-3.2-1.3-6.2-3.5-8.4L92.7,75.9c23.9-10.3,52.6-15.8,83-15.8c30.4,0,58.9,5.5,83,15.8l-47,46.7
	c-2.3,2.2-3.5,5.2-3.5,8.4c0,3.2,1.2,6.2,3.5,8.4s5.3,3.5,8.4,3.5c3.2,0,6.2-1.3,8.4-3.5l51.9-51.9
	C310,106.5,314.5,126.6,314.5,136.9L314.5,136.9z"/>
</svg>
